<svg width="113" height="14" viewBox="0 0 113 14" fill="none" xmlns="http://www.w3.org/2000/svg">
<path d="M20.6513 0.232044V8.21823C20.6513 10.1004 20.1319 11.5378 19.0931 12.5304C18.0543 13.5101 16.5816 14 14.6749 14C13.7281 14 12.88 13.8646 12.1304 13.5939C11.3941 13.3232 10.7892 12.9429 10.3158 12.453C9.82927 12.9429 9.21782 13.3232 8.48145 13.5939C7.74507 13.8646 6.91008 14 5.97646 14C4.06978 14 2.59703 13.5101 1.55822 12.5304C0.519406 11.5378 0 10.1004 0 8.21823V0.232044H3.19533V8.12155C3.19533 9.21731 3.42545 10.0295 3.88569 10.558C4.34592 11.0737 5.02969 11.3315 5.93701 11.3315C7.7911 11.3315 8.71814 10.2615 8.71814 8.12155V0.232044H11.9135V8.12155C11.9135 10.2615 12.8471 11.3315 14.7143 11.3315C16.529 11.3315 17.4363 10.2615 17.4363 8.12155V0.232044H20.6513Z" fill="#292E39"/>
<path d="M68.9913 0.232044V8.21823C68.9913 10.1004 68.4718 11.5378 67.433 12.5304C66.3942 13.5101 64.9215 14 63.0148 14C62.068 14 61.2199 13.8646 60.4704 13.5939C59.734 13.3232 59.1291 12.9429 58.6557 12.453C58.1692 12.9429 57.5577 13.3232 56.8214 13.5939C56.085 13.8646 55.25 14 54.3164 14C52.4097 14 50.937 13.5101 49.8981 12.5304C48.8593 11.5378 48.3399 10.1004 48.3399 8.21823V0.232044H51.5353V8.12155C51.5353 9.21731 51.7654 10.0295 52.2256 10.558C52.6858 11.0737 53.3696 11.3315 54.2769 11.3315C56.131 11.3315 57.0581 10.2615 57.0581 8.12155V0.232044H60.2534V8.12155C60.2534 10.2615 61.187 11.3315 63.0542 11.3315C64.8689 11.3315 65.7762 10.2615 65.7762 8.12155V0.232044H68.9913Z" fill="#292E39"/>
<path d="M78.3637 0C79.6392 0 80.7503 0.244936 81.6971 0.734807C82.6439 1.22468 83.3802 1.94659 83.9062 2.90055C84.4322 3.85451 84.6952 5.00829 84.6952 6.36188V13.768H81.4999V10.5193H75.1881V13.768H72.0322V6.36188C72.0322 5.00829 72.2952 3.85451 72.8212 2.90055C73.3471 1.94659 74.0835 1.22468 75.0303 0.734807C75.9771 0.244936 77.0882 0 78.3637 0ZM81.4999 8.00552V6.07182C81.4999 4.95028 81.2171 4.10589 80.6517 3.53867C80.0863 2.95856 79.317 2.66851 78.344 2.66851C77.3577 2.66851 76.5819 2.95856 76.0165 3.53867C75.4642 4.10589 75.1881 4.95028 75.1881 6.07182V8.00552H81.4999Z" fill="#292E39"/>
<path d="M100.738 0.232044L94.7618 13.768H91.6059L85.6492 0.232044H89.1009L93.3022 9.90055L97.5627 0.232044H100.738Z" fill="#292E39"/>
<path d="M113 12.6077C112.343 13.046 111.514 13.3877 110.515 13.6326C109.529 13.8775 108.477 14 107.359 14C105.965 14 104.782 13.8324 103.808 13.4972C102.835 13.1492 102.099 12.6722 101.599 12.0663C101.1 11.4475 100.85 10.7449 100.85 9.95856C100.85 9.23665 101.054 8.59853 101.461 8.0442C101.869 7.48987 102.428 7.07735 103.138 6.80663C102.599 6.52302 102.178 6.13628 101.875 5.64641C101.586 5.15654 101.442 4.60865 101.442 4.00276C101.442 3.26796 101.672 2.59761 102.132 1.99171C102.592 1.38582 103.289 0.902394 104.223 0.541436C105.156 0.180479 106.3 0 107.655 0C108.549 0 109.423 0.0902394 110.278 0.270718C111.133 0.438305 111.876 0.670349 112.507 0.96685L111.619 3.36464C110.41 2.81031 109.127 2.53315 107.773 2.53315C106.747 2.53315 105.972 2.68784 105.446 2.99724C104.933 3.29374 104.676 3.69982 104.676 4.21547C104.676 4.69245 104.847 5.05985 105.189 5.31768C105.544 5.56261 106.077 5.68508 106.787 5.68508H110.554V8.16022H106.59C105.787 8.16022 105.169 8.29558 104.736 8.5663C104.302 8.83702 104.085 9.2302 104.085 9.74586C104.085 10.2873 104.361 10.7127 104.913 11.0221C105.478 11.3186 106.34 11.4668 107.497 11.4668C108.312 11.4668 109.127 11.3637 109.943 11.1575C110.758 10.9383 111.448 10.6354 112.014 10.2486L113 12.6077Z" fill="#292E39"/>
<path d="M39.4694 7.62741H23V5.37258H39.4694L36.5532 2.5944L38.2268 1L44 6.5L38.2268 12L36.5532 10.4056L39.4694 7.62741Z" fill="#6D31EE"/>
</svg>
